<?xml version="1.0" standalone="no"?>
<!DOCTYPE svg PUBLIC "-//W3C//DTD SVG 20010904//EN"
 "http://www.w3.org/TR/2001/REC-SVG-20010904/DTD/svg10.dtd">
<svg version="1.0" xmlns="http://www.w3.org/2000/svg"
 width="512.000000pt" height="512.000000pt" viewBox="0 0 512.000000 512.000000"
 preserveAspectRatio="xMidYMid meet">

<g transform="translate(0.000000,512.000000) scale(0.100000,-0.100000)"
fill="#000000" stroke="none">
<path d="M610 2581 l0 -1370 173 -54 c94 -31 314 -100 487 -154 l315 -99 3
153 3 153 614 0 615 0 0 470 0 470 -80 0 -80 0 -2 -397 c-2 -219 -6 -397 -10
-395 -5 1 -245 2 -534 2 l-526 0 3 1132 4 1131 -275 93 -275 92 808 1 807 1 0
-340 0 -340 80 0 80 0 0 410 0 410 -1105 0 -1105 0 0 -1369z m800 -224 c60
-42 80 -141 41 -201 -30 -45 -70 -66 -126 -66 -88 0 -145 57 -145 145 0 121
132 191 230 122z"/>
<path d="M2036 2954 c-51 -18 -50 -17 -32 -53 25 -47 21 -51 -49 -51 l-65 0 0
-50 c0 -49 1 -50 30 -50 l30 0 0 -93 c0 -115 -14 -196 -46 -264 l-25 -52 30
-52 29 -52 29 51 c15 29 31 52 34 52 4 0 9 -18 13 -40 l6 -40 59 0 c61 0 111
25 111 56 0 26 16 14 40 -28 13 -24 24 -45 26 -47 5 -6 77 42 117 78 l38 34
37 -35 c39 -37 82 -68 94 -68 8 0 72 90 66 94 -1 2 -19 11 -38 21 -19 10 -50
28 -67 42 l-33 24 26 50 c28 56 64 186 64 231 0 21 6 31 25 38 22 8 25 16 25
55 l0 45 -106 0 -106 0 7 28 c16 57 13 65 -36 77 l-46 12 -23 -78 c-25 -86
-63 -175 -87 -201 -13 -14 -32 -18 -90 -18 l-73 0 0 40 0 40 96 0 95 0 -3 48
-3 47 -57 3 c-43 2 -56 6 -52 17 5 13 -29 89 -43 98 -5 3 -26 -2 -47 -9z m428
-251 c-8 -61 -42 -170 -53 -178 -12 -7 -50 107 -58 173 l-6 52 62 0 62 0 -7
-47z m-196 -101 c12 12 11 14 33 -57 6 -22 20 -57 30 -77 l19 -37 -48 -34
c-54 -40 -92 -60 -98 -54 -2 2 -1 71 3 152 l6 148 22 -26 c16 -18 26 -22 33
-15z m-158 -106 c0 -118 -8 -136 -63 -136 l-43 0 17 68 c10 37 18 86 18 110 1
41 2 42 36 42 l35 0 0 -84z"/>
<path d="M2948 2944 c-21 -13 -38 -27 -38 -30 0 -5 70 -121 116 -192 4 -6 94
50 94 58 0 8 -104 157 -123 177 -9 8 -21 5 -49 -13z"/>
<path d="M4283 2931 c-17 -21 -58 -60 -91 -86 l-60 -49 31 -38 c17 -21 34 -38
39 -38 12 0 168 140 185 167 13 20 12 23 -29 51 l-44 30 -31 -37z"/>
<path d="M3690 2835 l0 -125 -70 0 -70 0 0 96 0 95 -52 -3 -53 -3 0 -140 0
-140 123 -3 122 -3 0 -120 0 -120 -82 3 -83 3 -3 88 -3 87 -49 0 -50 0 0 -140
0 -140 275 0 c238 0 275 -2 275 -15 0 -11 12 -15 50 -15 l50 0 0 155 0 155
-50 0 -49 0 -3 -87 -3 -88 -82 -3 -83 -3 0 121 0 120 120 0 120 0 0 145 0 145
-50 0 -50 0 0 -95 0 -95 -70 0 -70 0 0 125 0 125 -55 0 -55 0 0 -125z"/>
<path d="M4450 2870 l0 -50 191 0 190 0 -3 48 -3 47 -187 3 -188 2 0 -50z"/>
<path d="M2824 2796 c-12 -31 1 -460 14 -483 25 -45 64 -55 194 -51 l120 3 28
31 c16 19 32 53 39 83 17 82 16 85 -36 104 -27 9 -51 17 -54 17 -4 0 -10 -25
-14 -55 -3 -30 -13 -62 -21 -70 -20 -19 -127 -21 -143 -2 -7 9 -12 89 -13 223
l-3 209 -53 3 c-39 2 -54 -1 -58 -12z"/>
<path d="M4294 2733 c-15 -21 -59 -70 -96 -109 l-69 -71 21 -47 20 -47 35 27
35 26 0 -131 0 -131 50 0 50 0 0 188 0 187 35 44 c19 24 35 47 35 51 0 6 -72
50 -83 50 -2 0 -17 -17 -33 -37z"/>
<path d="M2706 2739 c-2 -8 -18 -72 -36 -144 -18 -71 -34 -135 -37 -141 -2 -6
13 -16 34 -23 21 -7 43 -15 50 -17 20 -9 104 299 86 317 -4 4 -27 11 -50 15
-32 5 -44 3 -47 -7z"/>
<path d="M3202 2720 l-43 -19 16 -32 c9 -17 32 -70 50 -117 24 -62 38 -86 49
-84 27 5 86 32 86 40 0 17 -96 226 -105 229 -5 1 -29 -6 -53 -17z"/>
<path d="M4427 2703 c-4 -3 -7 -26 -7 -50 l0 -43 110 0 110 0 0 -120 c0 -116
-1 -120 -25 -136 -19 -13 -37 -15 -86 -9 l-62 7 8 -38 c13 -74 15 -75 113 -68
144 10 161 34 161 237 l1 127 55 0 55 0 0 50 0 50 -213 0 c-118 0 -217 -3
-220 -7z"/>
</g>
</svg>
